# xmcd
#
# Track frame offsets: 
#        150
#        9402
#        19276
#        29023
#        36950
#        47375
#        56961
#        67856
#        75081
#        85790
#        98041
#        107859
#        118494
#        130558
#        139006
#        148526
#        157278
#        168925
#        182053
#        192629
#        203412
#        216163
#        226921
#        238664
#        250660
#        261428
#        271424
#        282573
#        296329
#        308282
#        316428
#        325744
#
# Disc length: 4456 seconds
#
# Revision: 0
# Processed by: cddbd v1.5.2PL0 Copyright (c) Steve Scherf et al.
# Submitted via: ExactAudioCopy v1.1
#
DISCID=c8116620
DTITLE=George Jones - CD3_The Complete Collection 1960-62
DYEAR=2016
DGENRE=Country
TTITLE0=The Fabulous Country Music Sound Of George Jones, 1962 - Yes, 
TTITLE0=I Know Why
TTITLE1=The Fabulous Country Music Sound Of George Jones, 1962 - Waste
TTITLE1=d Words
TTITLE2=The Fabulous Country Music Sound Of George Jones, 1962 - Heart
TTITLE2=break Hotel
TTITLE3=The Fabulous Country Music Sound Of George Jones, 1962 - Go Aw
TTITLE3=ay With Me
TTITLE4=The Fabulous Country Music Sound Of George Jones, 1962 - No Mo
TTITLE4=ney In This Deal
TTITLE5=The Fabulous Country Music Sound Of George Jones, 1962 - Sweet
TTITLE5=Dreams
TTITLE6=The Fabulous Country Music Sound Of George Jones, 1962 - Accid
TTITLE6=entally On Purpose
TTITLE7=The Fabulous Country Music Sound Of George Jones, 1962 - Any O
TTITLE7=ld Time
TTITLE8=The Fabulous Country Music Sound Of George Jones, 1962 - Who S
TTITLE8=hot Sam
TTITLE9=The Fabulous Country Music Sound Of George Jones, 1962 - I'll 
TTITLE9=Take The Chance
TTITLE10=The Fabulous Country Music Sound Of George Jones, 1962 - Rain
TTITLE10=Keeps A-Fallin' 
TTITLE11=Sings Bob Wills, 1962 - Bubbles In My Bear
TTITLE12=Sings Bob Wills, 1962 - Faded Love
TTITLE13=Sings Bob Wills, 1962 - Roly Poly
TTITLE14=Sings Bob Wills, 1962 - Trouble In Mind
TTITLE15=Sings Bob Wills, 1962 - Take Me Back To Tulsa
TTITLE16=Sings Bob Wills, 1962 - The Warm Red Wine
TTITLE17=Sings Bob Wills, 1962 - Time Changes Everything
TTITLE18=Sings Bob Wills, 1962 - Worried Mind
TTITLE19=Sings Bob Wills, 1962 - Silver Dew On The Bluegrass
TTITLE20=Sings Bob Wills, 1962 - San Antonio Rose
TTITLE21=Sings Bob Wills, 1962 - Steel Guitar Rag
TTITLE22=Sings Bob Wills, 1962 - Big Beaver
TTITLE23=Sings The Hits Of His Country Cousins', 1962 - Peace In The V
TTITLE23=alley
TTITLE24=Sings The Hits Of His Country Cousins', 1962 - The Precious J
TTITLE24=ewel
TTITLE25=Sings The Hits Of His Country Cousins', 1962 - It's A Sin
TTITLE26=Sings The Hits Of His Country Cousins', 1962 - Don't Let The 
TTITLE26=Stars Get In Your Eyes
TTITLE27=Sings The Hits Of His Country Cousins', 1962 - Give My Love T
TTITLE27=o Rose
TTITLE28=Sings The Hits Of His Country Cousins', 1962 - The Same Sweet
TTITLE28=Girl
TTITLE29=Sings The Hits Of His Country Cousins', 1962 - Yes, I Know Wh
TTITLE29=y
TTITLE30=Sings The Hits Of His Country Cousins', 1962 - Wings Of A Dov
TTITLE30=e
TTITLE31=Sings The Hits Of His Country Cousins', 1962 - A Little Boy T
TTITLE31=ear
EXTD=
EXTT0=
EXTT1=
EXTT2=
EXTT3=
EXTT4=
EXTT5=
EXTT6=
EXTT7=
EXTT8=
EXTT9=
EXTT10=
EXTT11=
EXTT12=
EXTT13=
EXTT14=
EXTT15=
EXTT16=
EXTT17=
EXTT18=
EXTT19=
EXTT20=
EXTT21=
EXTT22=
EXTT23=
EXTT24=
EXTT25=
EXTT26=
EXTT27=
EXTT28=
EXTT29=
EXTT30=
EXTT31=
PLAYORDER=
